<svg width="1200" height="400" viewBox="0 0 1200 400" fill="none" xmlns="http://www.w3.org/2000/svg">
  <!-- Background -->
  <rect width="1200" height="400" fill="#F5F5F5"/>
  
  <!-- Flower pattern -->
  <g opacity="0.3">
    <!-- Flower 1 -->
    <circle cx="100" cy="100" r="15" fill="#D3D3D3"/>
    <circle cx="85" cy="85" r="8" fill="#C0C0C0"/>
    <circle cx="115" cy="85" r="8" fill="#C0C0C0"/>
    <circle cx="85" cy="115" r="8" fill="#C0C0C0"/>
    <circle cx="115" cy="115" r="8" fill="#C0C0C0"/>
    <circle cx="100" cy="100" r="5" fill="#A9A9A9"/>
    
    <!-- Flower 2 -->
    <circle cx="300" cy="150" r="12" fill="#D3D3D3"/>
    <circle cx="288" cy="138" r="6" fill="#C0C0C0"/>
    <circle cx="312" cy="138" r="6" fill="#C0C0C0"/>
    <circle cx="288" cy="162" r="6" fill="#C0C0C0"/>
    <circle cx="312" cy="162" r="6" fill="#C0C0C0"/>
    <circle cx="300" cy="150" r="4" fill="#A9A9A9"/>
    
    <!-- Flower 3 -->
    <circle cx="500" cy="80" r="18" fill="#D3D3D3"/>
    <circle cx="482" cy="62" r="9" fill="#C0C0C0"/>
    <circle cx="518" cy="62" r="9" fill="#C0C0C0"/>
    <circle cx="482" cy="98" r="9" fill="#C0C0C0"/>
    <circle cx="518" cy="98" r="9" fill="#C0C0C0"/>
    <circle cx="500" cy="80" r="6" fill="#A9A9A9"/>
    
    <!-- Flower 4 -->
    <circle cx="700" cy="200" r="14" fill="#D3D3D3"/>
    <circle cx="686" cy="186" r="7" fill="#C0C0C0"/>
    <circle cx="714" cy="186" r="7" fill="#C0C0C0"/>
    <circle cx="686" cy="214" r="7" fill="#C0C0C0"/>
    <circle cx="714" cy="214" r="7" fill="#C0C0C0"/>
    <circle cx="700" cy="200" r="5" fill="#A9A9A9"/>
    
    <!-- Flower 5 -->
    <circle cx="900" cy="120" r="16" fill="#D3D3D3"/>
    <circle cx="884" cy="104" r="8" fill="#C0C0C0"/>
    <circle cx="916" cy="104" r="8" fill="#C0C0C0"/>
    <circle cx="884" cy="136" r="8" fill="#C0C0C0"/>
    <circle cx="916" cy="136" r="8" fill="#C0C0C0"/>
    <circle cx="900" cy="120" r="6" fill="#A9A9A9"/>
    
    <!-- Flower 6 -->
    <circle cx="1100" cy="180" r="13" fill="#D3D3D3"/>
    <circle cx="1087" cy="167" r="6" fill="#C0C0C0"/>
    <circle cx="1113" cy="167" r="6" fill="#C0C0C0"/>
    <circle cx="1087" cy="193" r="6" fill="#C0C0C0"/>
    <circle cx="1113" cy="193" r="6" fill="#C0C0C0"/>
    <circle cx="1100" cy="180" r="5" fill="#A9A9A9"/>
    
    <!-- Additional smaller flowers -->
    <circle cx="200" cy="250" r="10" fill="#D3D3D3"/>
    <circle cx="400" cy="300" r="11" fill="#D3D3D3"/>
    <circle cx="600" cy="320" r="9" fill="#D3D3D3"/>
    <circle cx="800" cy="280" r="12" fill="#D3D3D3"/>
    <circle cx="1000" cy="350" r="10" fill="#D3D3D3"/>
  </g>
</svg> 